<svg xmlns="http://www.w3.org/2000/svg" width="1400" height="595" viewBox="0 0 1400 595">
  <defs>
    <linearGradient id="bg" x1="0" y1="0" x2="1" y2="1">
      <stop offset="0%" stop-color="#07152f"/>
      <stop offset="100%" stop-color="#0b376c"/>
    </linearGradient>
    <pattern id="grid" width="70" height="70" patternUnits="userSpaceOnUse">
      <path d="M 70 0 L 0 0 0 70" fill="none" stroke="#1c3f71" stroke-opacity="0.55" stroke-width="1"/>
    </pattern>
  </defs>
  <rect width="1400" height="595" fill="url(#bg)"/>
  <rect width="1400" height="595" fill="url(#grid)"/>
  <g stroke="#54d2ff" stroke-opacity="0.72" fill="none">
    <rect x="150" y="120" width="100" height="60"/><rect x="290" y="120" width="100" height="60"/><rect x="430" y="120" width="100" height="60"/>
    <rect x="570" y="120" width="100" height="60"/><rect x="710" y="120" width="100" height="60"/><rect x="850" y="120" width="100" height="60"/>
    <rect x="990" y="120" width="100" height="60"/><rect x="1130" y="120" width="100" height="60"/>
  </g>
  <text x="78" y="138" fill="#eff9ff" font-size="74" font-family="-apple-system, BlinkMacSystemFont, 'PingFang SC', 'Hiragino Sans GB', sans-serif">OpenClaw 深度解析</text>
  <text x="78" y="210" fill="#b8e8ff" font-size="48" font-family="-apple-system, BlinkMacSystemFont, 'PingFang SC', 'Hiragino Sans GB', sans-serif">从“AI 顾问”到“AI 员工”的工程化落地</text>
  <rect x="78" y="260" rx="14" ry="14" width="412" height="62" fill="#1aa7ff" fill-opacity="0.55"/>
  <text x="96" y="303" fill="#ffffff" font-size="42" font-family="-apple-system, BlinkMacSystemFont, 'PingFang SC', 'Hiragino Sans GB', sans-serif">架构 / 安全 / 成本 / 实战</text>
  <rect x="980" y="422" rx="20" ry="20" width="340" height="80" fill="none" stroke="#7edcff" stroke-width="3"/>
  <text x="1010" y="472" fill="#c9f1ff" font-size="30" font-family="Inter, -apple-system, BlinkMacSystemFont, sans-serif">OpenClaw OrangeBook</text>
</svg>